<?xml version="1.0" standalone="no"?>
<!DOCTYPE svg PUBLIC "-//W3C//DTD SVG 1.1//EN" "http://www.w3.org/Graphics/SVG/1.1/DTD/svg11.dtd" >
<svg xmlns="http://www.w3.org/2000/svg">
<metadata></metadata>
<defs>
<font id="sero_promedium_italic" horiz-adv-x="1171" >
<font-face units-per-em="2048" ascent="1593" descent="-455" />
<missing-glyph horiz-adv-x="450" />
<glyph horiz-adv-x="0" />
<glyph horiz-adv-x="0" />
<glyph horiz-adv-x="682" />
<glyph unicode="&#xd;" horiz-adv-x="450" />
<glyph unicode=" "  horiz-adv-x="450" />
<glyph unicode="&#x09;" horiz-adv-x="450" />
<glyph unicode="&#xa0;" horiz-adv-x="450" />
<glyph unicode="!" horiz-adv-x="671" d="M117 121q0 62 42 103.5t109 41.5t109.5 -41.5t42.5 -103.5t-42.5 -104t-109.5 -42t-109 42t-42 104zM223 438l135 1037h293l-229 -1037h-199z" />
<glyph unicode="&#x22;" horiz-adv-x="876" d="M229 911l82 564h211l-114 -564h-179zM604 911l82 564h211l-115 -564h-178z" />
<glyph unicode="#" d="M6 406l33 182h203l84 217h-179l33 182h217l158 406h207l-158 -406h252l158 406h207l-158 -406h164l-33 -182h-203l-84 -217h178l-32 -182h-217l-158 -406h-207l158 406h-252l-158 -406h-207l158 406h-164zM449 588h251l84 217h-252z" />
<glyph unicode="$" horiz-adv-x="1150" d="M12 123l103 203q197 -113 377 -113q138 0 226.5 61t88.5 156q0 55 -33.5 97t-86.5 70t-117.5 54t-129 58t-117.5 72.5t-86.5 106.5t-33.5 152q0 176 128.5 293.5t334.5 136.5l30 168h162l-31 -168q182 -20 338 -116l-102 -211q-175 110 -334 110q-119 0 -195.5 -54 t-76.5 -134q0 -50 33.5 -88t86.5 -64.5t117.5 -51.5t129 -57.5t117.5 -74t86.5 -110t33.5 -156.5q0 -185 -135.5 -311t-354.5 -148l-36 -209h-162l37 207q-219 18 -398 121z" />
<glyph unicode="%" horiz-adv-x="1619" d="M152 0l1163 1475h229l-1163 -1475h-229zM193 1112q0 156 99 265.5t257 109.5q139 0 222 -86.5t83 -224.5q0 -156 -99 -265.5t-257 -109.5q-139 0 -222 86.5t-83 224.5zM381 1104q0 -76 30.5 -117t88.5 -41q80 0 123 71t43 165q0 76 -30.5 116.5t-88.5 40.5 q-80 0 -123 -70.5t-43 -164.5zM842 299q0 156 99 265.5t257 109.5q139 0 222 -87t83 -225q0 -156 -99 -265t-257 -109q-139 0 -222 86.5t-83 224.5zM1030 291q0 -76 30.5 -117t88.5 -41q80 0 123 71t43 165q0 76 -30.5 116.5t-88.5 40.5q-80 0 -123 -70.5t-43 -164.5z" />
<glyph unicode="&#x26;" horiz-adv-x="1263" d="M12 332q0 69 22 128.5t57 103.5t89 84t107 68t121 56q-67 105 -85 149q-26 63 -26 130q0 162 126 264t327 102q183 0 288 -86.5t105 -220.5q0 -44 -13.5 -84.5t-33.5 -71.5t-56.5 -62t-67.5 -52t-83 -46.5t-86.5 -41t-93.5 -39.5l186 -293q87 93 180 227l152 -125 q-122 -165 -221 -264l131 -197l-191 -135l-117 183q-195 -134 -403 -134q-187 0 -300.5 96t-113.5 261zM264 350q0 -82 54 -133t151 -51q128 0 262 94l-227 361q-114 -54 -177 -117t-63 -154zM532 1044q0 -10 1.5 -20.5t2.5 -18.5t5.5 -19t6.5 -18t8.5 -19.5t9.5 -17.5 t11.5 -19.5t11.5 -19t13.5 -21t13.5 -21.5q62 24 96.5 38t80.5 38t70 45t41.5 51t17.5 63q0 61 -46 102.5t-128 41.5q-92 0 -154 -51.5t-62 -133.5z" />
<glyph unicode="'" horiz-adv-x="499" d="M229 911l82 564h211l-114 -564h-179z" />
<glyph unicode="(" horiz-adv-x="755" d="M68 424q0 119 23 230t59.5 199.5t93.5 174.5t112 149.5t128.5 130t130.5 110t130 95.5l105 -147q-90 -67 -161 -131t-142.5 -152.5t-118.5 -182.5t-76.5 -216t-29.5 -258q0 -412 247 -705l-149 -102q-51 50 -91 96t-92 124t-86 158.5t-58.5 193t-24.5 233.5z" />
<glyph unicode=")" horiz-adv-x="755" d="M-80 -233q90 67 161 131t142.5 152.5t119 182.5t77 216t29.5 258q0 410 -248 704l149 102q51 -50 91 -96t92 -124t86 -158t58.5 -192.5t24.5 -233.5q0 -119 -23 -230t-59.5 -199.5t-93 -175t-112 -150t-129 -130t-130.5 -110.5t-130 -95z" />
<glyph unicode="*" horiz-adv-x="880" d="M166 1038v152l270 -14l-149 221l129 78l121 -242l120 242l129 -78l-149 -221l270 14v-152l-270 17l149 -224l-129 -75l-120 241l-121 -241l-129 75l149 224z" />
<glyph unicode="+" d="M68 420l36 205h398l73 419h205l-73 -419h397l-37 -205h-397l-74 -420h-205l74 420h-397z" />
<glyph unicode="," horiz-adv-x="598" d="M-68 -229q215 97 269 223q-66 4 -104 43.5t-38 99.5q0 64 42.5 107t111.5 43q79 0 130.5 -57.5t51.5 -157.5q0 -252 -368 -428z" />
<glyph unicode="-" horiz-adv-x="831" d="M117 547l33 182h606l-33 -182h-606z" />
<glyph unicode="." horiz-adv-x="598" d="M68 131q0 67 43.5 111.5t113.5 44.5t114 -44.5t44 -111.5t-44 -111.5t-114 -44.5t-113.5 44.5t-43.5 111.5z" />
<glyph unicode="/" horiz-adv-x="1255" d="M-57 -82l1153 1557h278l-1153 -1557h-278z" />
<glyph unicode="0" horiz-adv-x="1302" d="M111 612q0 172 46.5 331.5t130 283t208.5 198t272 74.5q226 0 362 -168t136 -469q0 -137 -29.5 -267.5t-86.5 -242.5t-135.5 -196.5t-183.5 -132.5t-223 -48q-226 0 -361.5 168t-135.5 469zM365 610q0 -207 67 -315.5t189 -108.5q115 0 206 95t138 247t47 328 q0 207 -67 315.5t-189 108.5q-115 0 -206 -95t-138 -247t-47 -328z" />
<glyph unicode="1" horiz-adv-x="786" d="M197 1294l370 181h197l-260 -1475h-250l209 1186l-227 -107z" />
<glyph unicode="2" horiz-adv-x="1159" d="M-8 0l33 190q318 227 503.5 389t264.5 278t79 216q0 91 -58.5 146t-162.5 55q-203 0 -393 -211l-41 229q86 96 206.5 152.5t262.5 56.5q201 0 320.5 -110.5t119.5 -296.5q0 -197 -161 -398t-543 -483h586l-37 -213h-979z" />
<glyph unicode="3" horiz-adv-x="1130" d="M-35 90l103 203q198 -107 366 -107q151 0 237.5 67.5t86.5 178.5q0 209 -336 209q-52 0 -141 -6l34 205q276 0 410.5 67.5t134.5 192.5q0 87 -59.5 133.5t-163.5 46.5q-161 0 -369 -127l-24 223q206 125 430 125q196 0 319 -92.5t123 -259.5q0 -141 -93.5 -242.5 t-270.5 -154.5q272 -77 272 -334q0 -204 -162.5 -323.5t-429.5 -119.5q-262 0 -467 115z" />
<glyph unicode="4" horiz-adv-x="1257" d="M14 297l35 205l799 973h321l-170 -963h218l-37 -215h-217l-54 -297h-250l54 297h-699zM307 512h443l120 686z" />
<glyph unicode="5" horiz-adv-x="1114" d="M-29 92l103 207q195 -109 366 -109q162 0 257.5 80t95.5 215q0 244 -326 244q-159 0 -334 -51l168 797h850l-37 -222h-612l-72 -329q59 10 125 10q225 0 358.5 -118t133.5 -329q0 -236 -167 -374t-444 -138q-256 0 -465 117z" />
<glyph unicode="6" horiz-adv-x="1216" d="M111 637q0 141 30.5 269.5t91.5 236.5t146 187.5t201 124t251 44.5q224 0 396 -106l-105 -209q-83 46 -151.5 70t-149.5 24q-180 0 -292.5 -123.5t-149.5 -329.5q150 150 348 150q189 0 305.5 -124.5t116.5 -332.5q0 -161 -71.5 -286t-190.5 -191t-262 -66 q-230 0 -372 175t-142 487zM362 618q1 -220 73.5 -328t197.5 -108q117 0 194.5 88.5t77.5 227.5q0 126 -65 196t-174 70q-139 0 -304 -146z" />
<glyph unicode="7" horiz-adv-x="1060" d="M98 0q370 690 733 1247h-647l39 228h959l-37 -213q-368 -562 -746 -1262h-301z" />
<glyph unicode="8" horiz-adv-x="1202" d="M31 369q0 69 23.5 126.5t59 97.5t93.5 76t110.5 58.5t126.5 48.5q-221 126 -221 326q0 172 143.5 284.5t366.5 112.5q206 0 330.5 -98.5t124.5 -261.5q0 -71 -25 -129t-73.5 -102t-105.5 -76.5t-134 -61.5q131 -64 203.5 -149t72.5 -213q0 -192 -160.5 -312.5 t-414.5 -120.5q-238 0 -379 107t-141 287zM287 379q0 -101 74 -158t198 -57q134 0 222.5 63.5t88.5 169.5q0 40 -14.5 75t-34.5 61t-56.5 53t-66.5 45t-77 43q-53 -20 -88 -34.5t-78 -36t-69.5 -43t-51 -48.5t-36 -60.5t-11.5 -72.5zM471 1106q0 -76 52 -129t151 -105 q62 24 104 45.5t82 52t60 69t20 85.5q0 84 -60.5 132.5t-158.5 48.5q-107 0 -178.5 -55t-71.5 -144z" />
<glyph unicode="9" horiz-adv-x="1216" d="M66 82l104 201q84 -47 152 -71t149 -24q182 0 295.5 126t148.5 337q-148 -151 -350 -151q-189 0 -305.5 124t-116.5 332q0 160 72 285.5t191 191.5t262 66q230 0 372 -174.5t142 -486.5q0 -177 -49 -333t-139 -274.5t-227.5 -187t-305.5 -68.5q-222 0 -395 107zM387 969 q0 -126 65.5 -196.5t174.5 -70.5q74 0 146 35.5t157 110.5q-1 219 -74 327.5t-197 108.5q-117 0 -194.5 -88t-77.5 -227z" />
<glyph unicode=":" horiz-adv-x="598" d="M68 131q0 67 43.5 111.5t113.5 44.5t114 -44.5t44 -111.5t-44 -111.5t-114 -44.5t-113.5 44.5t-43.5 111.5zM193 858q0 67 43.5 111.5t113.5 44.5t114 -44.5t44 -111.5t-44 -111.5t-114 -44.5t-113.5 44.5t-43.5 111.5z" />
<glyph unicode=";" horiz-adv-x="598" d="M-68 -229q215 97 269 223q-66 4 -104 43.5t-38 99.5q0 64 42.5 107t111.5 43q79 0 130.5 -57.5t51.5 -157.5q0 -252 -368 -428zM193 858q0 67 43.5 111.5t113.5 44.5t114 -44.5t44 -111.5t-44 -111.5t-114 -44.5t-113.5 44.5t-43.5 111.5z" />
<glyph unicode="&#x3c;" d="M70 430l32 184l1076 430l-37 -213l-832 -317l717 -324l-33 -190z" />
<glyph unicode="=" d="M33 221l33 185h999l-33 -185h-999zM106 639l33 184h1000l-33 -184h-1000z" />
<glyph unicode="&#x3e;" d="M-6 0l37 213l831 317l-717 324l33 190l924 -430l-33 -184z" />
<glyph unicode="?" horiz-adv-x="878" d="M82 121q0 62 42 103.5t109 41.5t109.5 -41.5t42.5 -103.5t-42.5 -104t-109.5 -42t-109 42t-42 104zM182 514q0 57 25.5 108t66 91t89.5 78t98.5 74.5t90 74t66 84t25.5 96.5q0 86 -66.5 130t-173.5 44q-77 0 -190 -22l35 201q114 26 215 26q196 0 315 -89.5t119 -254.5 q0 -77 -28 -144t-73 -115t-99 -91t-108 -81t-99 -75.5t-73 -84.5t-28 -99v-27h-199q-8 62 -8 76z" />
<glyph unicode="@" horiz-adv-x="1712" d="M94 528q0 229 100 411.5t282.5 286t414.5 103.5q209 0 370.5 -84.5t251 -240.5t89.5 -359q0 -118 -30.5 -211t-83.5 -150.5t-120 -87.5t-143 -30q-97 0 -158.5 46t-79.5 122q-70 -83 -134 -125.5t-148 -42.5q-109 0 -175.5 76.5t-66.5 230.5q0 74 16 144t51 134.5 t86 112.5t127 76.5t168 28.5q140 0 267 -60l-43 -403q-2 -16 -2 -35q0 -158 102 -158q87 0 144 91.5t57 240.5q0 243 -154 386t-395 143q-182 0 -326 -84.5t-222.5 -231.5t-78.5 -330q0 -110 30.5 -203t84.5 -159.5t128 -113t162 -69t185 -22.5q170 0 389 80l47 -154 q-215 -82 -434 -82q-159 0 -296.5 47.5t-240.5 136.5t-162 228t-59 311zM639 481q0 -159 102 -159q110 0 222 163l32 312q-57 22 -110 22q-56 0 -100.5 -23.5t-71 -59t-44 -82t-24 -89t-6.5 -84.5z" />
<glyph unicode="A" horiz-adv-x="1404" d="M-41 0l764 1475h305l234 -1475h-256l-50 344h-557l-170 -344h-270zM500 547h426l-97 670z" />
<glyph unicode="B" horiz-adv-x="1351" d="M82 0l260 1475h471q224 0 350.5 -91.5t126.5 -273.5q0 -132 -71.5 -227t-212.5 -140q114 -39 169.5 -120t55.5 -195q0 -193 -150.5 -310.5t-435.5 -117.5h-563zM371 203h274q164 0 248 63t84 180q0 201 -252 201h-274zM483 842h238q155 0 235 60.5t80 172.5 q0 191 -239 191h-238z" />
<glyph unicode="C" horiz-adv-x="1236" d="M113 606q0 140 33 271.5t99 244t159 197t220.5 132.5t274.5 48q231 0 408 -117l-103 -217q-83 56 -157.5 83.5t-161.5 27.5q-99 0 -183.5 -36.5t-144.5 -99t-102.5 -146.5t-63 -179.5t-20.5 -196.5q0 -215 91 -320t247 -105q178 0 352 122l26 -219q-188 -121 -415 -121 q-253 0 -406 162t-153 469z" />
<glyph unicode="D" horiz-adv-x="1452" d="M80 0l260 1475h453q282 0 449 -170t167 -471q0 -131 -33 -253.5t-100.5 -228t-162 -184t-224.5 -123.5t-281 -45h-528zM377 217h231q132 0 238 51t171 137t99.5 194t34.5 228q0 208 -97.5 315t-260.5 107h-234z" />
<glyph unicode="E" horiz-adv-x="1206" d="M82 0l260 1475h938l-39 -226h-680l-69 -389h593l-36 -213h-594l-78 -430h686l-37 -217h-944z" />
<glyph unicode="F" horiz-adv-x="1118" d="M82 0l260 1475h889l-39 -226h-631l-74 -409h557l-36 -213h-557l-111 -627h-258z" />
<glyph unicode="G" horiz-adv-x="1398" d="M113 614q0 181 53.5 340t154 281t257 193t348.5 71q268 0 473 -141l-105 -215q-91 64 -180.5 97.5t-198.5 33.5q-107 0 -196.5 -33.5t-153 -93.5t-108 -142t-65.5 -178.5t-21 -203.5q0 -439 372 -439q111 0 211 35l66 367h-279l33 200h524l-120 -692q-217 -119 -465 -119 q-285 0 -442.5 162t-157.5 477z" />
<glyph unicode="H" horiz-adv-x="1464" d="M82 0l260 1475h258l-106 -605h600l106 605h258l-260 -1475h-258l115 647h-600l-115 -647h-258z" />
<glyph unicode="I" horiz-adv-x="634" d="M96 0l260 1475h258l-260 -1475h-258z" />
<glyph unicode="J" horiz-adv-x="837" d="M-43 4l39 219q85 -18 164 -18q122 0 177.5 58.5t78.5 189.5l180 1022h258l-188 -1067q-15 -85 -36 -146.5t-58.5 -115.5t-91 -87t-133 -52t-185.5 -19q-114 0 -205 16z" />
<glyph unicode="K" horiz-adv-x="1363" d="M80 0l260 1475h258l-121 -678l658 678h319l-594 -574l377 -901h-266l-295 725l-254 -246l-84 -479h-258z" />
<glyph unicode="L" horiz-adv-x="1097" d="M82 0l260 1475h258l-221 -1250h616l-39 -225h-874z" />
<glyph unicode="M" horiz-adv-x="1927" d="M55 0l383 1475h334l111 -826q28 -215 35 -344h4q64 157 159 342l422 828h328l-143 -1475h-261l99 803q26 223 47 348h-4q-21 -70 -160 -340l-426 -811h-233l-123 817q-41 262 -45 334h-4q-6 -38 -84 -363l-187 -788h-252z" />
<glyph unicode="N" horiz-adv-x="1478" d="M80 0l260 1475h276l439 -1008l178 1008h240l-261 -1475h-215l-483 1112l-195 -1112h-239z" />
<glyph unicode="O" horiz-adv-x="1474" d="M115 645q0 175 54 332t148.5 272t231.5 182.5t295 67.5q263 0 427.5 -177.5t164.5 -492.5q0 -175 -54 -332t-148.5 -272t-231.5 -182.5t-295 -67.5q-263 0 -427.5 177.5t-164.5 492.5zM373 645q0 -221 92.5 -338t251.5 -117q102 0 189 50t146.5 135.5t92.5 201t33 244.5 q0 221 -92.5 338t-251.5 117q-102 0 -189 -50t-146.5 -135.5t-92.5 -201t-33 -244.5z" />
<glyph unicode="P" horiz-adv-x="1298" d="M80 0l260 1475h491q233 0 363.5 -107.5t130.5 -316.5q0 -229 -155.5 -358.5t-440.5 -129.5h-295l-98 -563h-256zM473 776h256q169 0 254.5 68t85.5 194q0 215 -256 215h-256z" />
<glyph unicode="Q" horiz-adv-x="1482" d="M115 645q0 175 54 332t148.5 272t231.5 182.5t295 67.5q263 0 427.5 -177.5t164.5 -492.5q0 -168 -50 -318.5t-138.5 -263t-216 -182t-275.5 -79.5v-33q0 -77 38.5 -106t123.5 -29q90 0 204 30l-37 -213q-126 -28 -237 -28q-154 0 -229.5 68t-75.5 223q0 58 10 102 q-201 46 -319.5 212.5t-118.5 432.5zM373 645q0 -221 92.5 -338t251.5 -117q102 0 189 50t146.5 135.5t92.5 201t33 244.5q0 221 -92.5 338t-251.5 117q-102 0 -189 -50t-146.5 -135.5t-92.5 -201t-33 -244.5z" />
<glyph unicode="R" horiz-adv-x="1413" d="M82 0l260 1475h528q227 0 351.5 -101t124.5 -297q0 -177 -103 -292t-295 -152l266 -633h-268l-254 618h-248l-108 -618h-254zM479 811h287q162 0 244 63t82 183q0 103 -61 149.5t-187 46.5h-287z" />
<glyph unicode="S" horiz-adv-x="1191" d="M20 104l105 207q210 -121 387 -121q141 0 229 64t88 162q0 57 -33.5 101t-87 73t-118 56t-129 60t-118 74.5t-87 110t-33.5 156.5q0 200 155 326t396 126q233 0 432 -125l-104 -215q-176 117 -340 117q-123 0 -202 -58t-79 -145q0 -53 33.5 -93.5t87 -67t118 -52.5 t129 -58.5t118 -75.5t87 -113t33.5 -162q0 -212 -162 -344t-423 -132q-260 0 -482 129z" />
<glyph unicode="T" horiz-adv-x="1175" d="M178 1249l39 226h1077l-39 -226h-409l-221 -1249h-258l221 1249h-410z" />
<glyph unicode="U" horiz-adv-x="1409" d="M143 399q0 64 17 168l159 908h259l-166 -940q-11 -56 -11 -105q0 -123 62.5 -177t187.5 -54q151 0 238.5 79t118.5 259l166 938h251l-172 -975q-49 -272 -202 -398.5t-416 -126.5q-492 0 -492 424z" />
<glyph unicode="V" horiz-adv-x="1347" d="M219 1475h248l166 -1141l569 1141h262l-753 -1475h-267z" />
<glyph unicode="W" horiz-adv-x="1959" d="M227 1475h258l45 -713q13 -194 13 -343v-54h4q70 183 170 407l315 703h244l55 -703q16 -200 19 -407h4q23 67 74.5 207t74.5 194l297 709h268l-638 -1475h-252l-60 725q-7 81 -11 131t-6.5 83t-3.5 59.5t-1.5 38.5t-1 44t-0.5 54h-9q-12 -37 -26 -75t-35 -88.5t-32 -76.5 t-40.5 -92.5t-36.5 -81.5l-325 -721h-252z" />
<glyph unicode="X" horiz-adv-x="1357" d="M-25 0l584 760l-301 715h264l215 -533l404 533h293l-557 -711l319 -764h-266l-232 582l-428 -582h-295z" />
<glyph unicode="Y" horiz-adv-x="1292" d="M201 1475h254l235 -621l455 621h282l-636 -863l-109 -612h-258l106 608z" />
<glyph unicode="Z" horiz-adv-x="1245" d="M-23 0l33 184l912 1065h-682l39 226h1038l-33 -193l-911 -1065h727l-37 -217h-1086z" />
<glyph unicode="[" horiz-adv-x="804" d="M-4 -369l326 1844h587l-35 -189h-333l-258 -1466h333l-32 -189h-588z" />
<glyph unicode="\" horiz-adv-x="1255" d="M217 1475h244l639 -1557h-244z" />
<glyph unicode="]" horiz-adv-x="804" d="M-94 -369l35 189h333l258 1466h-333l32 189h588l-325 -1844h-588z" />
<glyph unicode="^" d="M53 475l611 1000h180l258 -1000h-187l-190 772l-463 -772h-209z" />
<glyph unicode="_" horiz-adv-x="1007" d="M-154 -299l33 182h1024l-33 -182h-1024z" />
<glyph unicode="`" horiz-adv-x="1024" d="M371 1475h270l150 -326h-195z" />
<glyph unicode="a" d="M66 408q0 180 66 331t184.5 240.5t263.5 89.5q83 0 148.5 -33t129.5 -108l21 116h243l-141 -800q-27 -162 -27 -201q0 -29 7 -43h-248q-13 26 -13 61q0 29 7 58q-131 -144 -301 -144q-153 0 -246.5 110t-93.5 323zM319 436q0 -134 50.5 -196t134.5 -62q118 0 233 121 l82 459q-91 94 -196 94q-91 0 -161.5 -57.5t-106.5 -151.5t-36 -207z" />
<glyph unicode="b" horiz-adv-x="1187" d="M49 0l260 1475h254l-98 -551q132 145 305 145q157 0 254.5 -115t97.5 -331q0 -176 -65 -324t-185 -236t-270 -88q-83 0 -153.5 33t-135.5 109l-20 -117h-244zM350 272q101 -94 211 -94q141 0 224 119t83 293q0 262 -192 262q-126 0 -244 -121z" />
<glyph unicode="c" horiz-adv-x="933" d="M66 430q0 130 41 246t116 203.5t188.5 138.5t250.5 51q162 0 288 -80l-86 -192q-101 69 -202 69q-156 0 -249.5 -122.5t-93.5 -299.5q0 -136 57.5 -204t160.5 -68q121 0 237 78l19 -195q-124 -80 -304 -80q-194 0 -308.5 116.5t-114.5 338.5z" />
<glyph unicode="d" horiz-adv-x="1187" d="M66 414q0 178 65.5 327.5t184 238.5t264.5 89q162 0 284 -133l97 539h253l-217 -1231q-26 -153 -26 -205q0 -23 4 -39h-246q-12 24 -12 61q0 35 6 60q-136 -146 -311 -146q-157 0 -251.5 113t-94.5 326zM319 438q0 -136 53 -198t142 -62q124 0 240 121l80 455 q-98 98 -207 98q-140 0 -224 -120t-84 -294z" />
<glyph unicode="e" horiz-adv-x="1093" d="M66 430q0 178 74.5 323.5t212.5 230.5t313 85q181 0 279.5 -86.5t98.5 -216.5q0 -153 -144 -245.5t-445 -92.5q-71 0 -136 6q6 -268 250 -268q155 0 324 88l22 -191q-178 -88 -385 -88q-223 0 -343.5 116.5t-120.5 338.5zM336 592q37 -4 108 -4q363 0 363 166 q0 57 -40 94t-116 37q-112 0 -197 -81t-118 -212z" />
<glyph unicode="f" horiz-adv-x="700" d="M98 848l35 196h176l27 152q26 145 107.5 218t246.5 73q73 0 150 -12l-35 -193q-39 10 -78 10q-70 0 -101 -33.5t-44 -109.5l-19 -105h201l-35 -196h-201l-149 -848h-254l149 848h-176z" />
<glyph unicode="g" horiz-adv-x="1187" d="M-14 -350l88 192q168 -80 307 -80q276 0 328 301l14 82q-132 -145 -305 -145q-157 0 -254.5 109.5t-97.5 320.5q0 173 65.5 319t185.5 233t269 87q86 0 152.5 -33t133.5 -110l21 118h244l-181 -1026q-40 -227 -192.5 -343.5t-376.5 -116.5q-219 0 -401 92zM319 455 q0 -130 53.5 -191t139.5 -61q123 0 244 121l75 434q-52 48 -100 71t-106 23q-137 0 -221.5 -114.5t-84.5 -282.5z" />
<glyph unicode="h" horiz-adv-x="1173" d="M49 0l260 1475h254l-102 -580q174 174 373 174q51 0 95 -12.5t83 -39.5t61.5 -77.5t22.5 -118.5q0 -42 -11 -102l-127 -719h-253l122 696q4 24 4 41q0 111 -118 111q-77 0 -145 -38.5t-142 -109.5l-123 -700h-254z" />
<glyph unicode="i" horiz-adv-x="561" d="M61 0l185 1044h254l-185 -1044h-254zM272 1335q0 62 41 102t109 40t108.5 -39.5t40.5 -102.5q0 -62 -40.5 -101.5t-108.5 -39.5t-109 39.5t-41 101.5z" />
<glyph unicode="j" horiz-adv-x="561" d="M-215 -430l35 192q39 -10 78 -10q70 0 101 34t44 110l203 1148h254l-211 -1196q-26 -145 -108 -217.5t-247 -72.5q-72 0 -149 12zM272 1335q0 62 41 102t109 40t108.5 -39.5t40.5 -102.5q0 -62 -40.5 -101.5t-108.5 -39.5t-109 39.5t-41 101.5z" />
<glyph unicode="k" horiz-adv-x="1118" d="M47 0l260 1475h254l-151 -863l430 432h295l-441 -401l289 -643h-250l-213 489l-160 -143l-59 -346h-254z" />
<glyph unicode="l" horiz-adv-x="561" d="M61 0l261 1475h253l-260 -1475h-254z" />
<glyph unicode="m" horiz-adv-x="1785" d="M49 0l184 1044h254l-28 -155q166 180 364 180q62 0 111.5 -17t86.5 -63.5t44 -118.5q79 89 180 144t209 55q49 0 92 -13t80.5 -40.5t59.5 -78t22 -118.5q0 -40 -10 -98l-127 -721h-254l123 696q4 24 4 47q0 105 -111 105q-125 0 -272 -143l-125 -705h-254l123 696 q4 24 4 47q0 105 -111 105q-69 0 -134 -38.5t-138 -109.5l-123 -700h-254z" />
<glyph unicode="n" horiz-adv-x="1173" d="M49 0l184 1044h254l-26 -149q174 174 373 174q51 0 95 -12.5t83 -39.5t61.5 -77.5t22.5 -118.5q0 -42 -11 -102l-127 -719h-253l122 696q4 24 4 41q0 111 -118 111q-77 0 -145 -38.5t-142 -109.5l-123 -700h-254z" />
<glyph unicode="o" horiz-adv-x="1142" d="M66 446q0 172 71 314t201 225.5t293 83.5q95 0 175.5 -29.5t141 -86.5t95 -148t34.5 -207q0 -172 -71 -314t-201 -225.5t-293 -83.5q-95 0 -175.5 29.5t-141 86.5t-95 148t-34.5 207zM319 449q0 -142 55.5 -213.5t151.5 -71.5q132 0 214.5 125t82.5 301q0 142 -55.5 213 t-151.5 71q-132 0 -214.5 -125t-82.5 -300z" />
<glyph unicode="p" horiz-adv-x="1187" d="M-25 -430l258 1474h254l-22 -120q132 145 305 145q157 0 254.5 -115t97.5 -331q0 -176 -65 -324t-185 -236t-270 -88q-81 0 -148.5 29.5t-129.5 99.5l-95 -534h-254zM352 272q101 -94 209 -94q141 0 224 119t83 293q0 262 -192 262q-126 0 -244 -121z" />
<glyph unicode="q" horiz-adv-x="1187" d="M66 414q0 177 65.5 326.5t184 239t264.5 89.5q86 0 155.5 -34t136.5 -111l23 120h244l-260 -1474h-254l98 549q-131 -144 -303 -144q-159 0 -256.5 112t-97.5 327zM319 438q0 -136 53 -198t142 -62q124 0 240 121l80 455q-98 98 -207 98q-140 0 -224 -120t-84 -294z" />
<glyph unicode="r" horiz-adv-x="788" d="M49 0l184 1044h254l-30 -178q55 90 135 146.5t180 56.5q48 0 86 -12l-39 -226q-56 9 -84 9q-97 0 -180 -53t-133 -113l-119 -674h-254z" />
<glyph unicode="s" horiz-adv-x="948" d="M0 70l86 184q156 -88 295 -88q93 0 152 37t59 98q0 37 -24 65t-63 46t-85.5 35.5t-93 40t-85.5 52t-63 78.5t-24 113q0 150 120 244t308 94q182 0 336 -90l-87 -191q-135 84 -251 84q-77 0 -129 -33.5t-52 -86.5q0 -33 24 -57.5t63 -40.5t85.5 -32.5t93.5 -39t86 -53 t63 -81.5t24 -118q0 -161 -126.5 -258t-334.5 -97q-210 0 -377 95z" />
<glyph unicode="t" horiz-adv-x="765" d="M98 848l35 196h176l62 349h254l-62 -349h228l-35 -196h-228l-92 -524q-6 -35 -6 -56q0 -42 22 -61t74 -19q48 0 117 21l-35 -201q-92 -20 -178 -20q-60 0 -104 10t-80.5 34t-55 70t-18.5 113q0 53 21 168l81 465h-176z" />
<glyph unicode="u" horiz-adv-x="1173" d="M76 223q0 48 10 103l127 718h254l-125 -704q-4 -24 -4 -41q0 -111 119 -111q77 0 144.5 38.5t141.5 109.5l125 708h254l-184 -1044h-254l27 150q-175 -175 -373 -175q-51 0 -95 12.5t-83 39.5t-61.5 77.5t-22.5 118.5z" />
<glyph unicode="v" horiz-adv-x="1038" d="M111 1044h247l113 -755l379 755h260l-559 -1044h-260z" />
<glyph unicode="w" horiz-adv-x="1525" d="M117 1044h233l45 -471q15 -153 17 -278h4q75 197 104 260l230 489h221l43 -477q8 -99 8 -222v-50h4q71 192 104 266l220 483h243l-483 -1044h-242l-43 469q-16 166 -16 279h-4q-20 -69 -113 -271l-225 -477h-244z" />
<glyph unicode="x" horiz-adv-x="1052" d="M-53 0l434 543l-225 501h250l141 -352l260 352h272l-403 -503l246 -541h-248l-164 391l-293 -391h-270z" />
<glyph unicode="y" horiz-adv-x="1038" d="M-100 -430l37 205q57 -11 102 -11q61 0 104 19.5t90.5 76t106.5 165.5h-74l-153 1019h264l88 -821l387 821h258l-532 -1056q-89 -177 -163.5 -268.5t-154.5 -126.5t-199 -35q-63 0 -161 12z" />
<glyph unicode="z" horiz-adv-x="1005" d="M-39 0l29 168l661 682h-506l35 194h838l-29 -161l-663 -682h548l-34 -201h-879z" />
<glyph unicode="{" horiz-adv-x="804" d="M53 459l33 188h47q89 0 127.5 36.5t54.5 123.5l66 367q27 156 130 228.5t331 72.5h67l-32 -189h-70q-88 0 -127 -37t-53 -123l-66 -366q-15 -87 -56 -142t-128 -75q108 -41 108 -185q0 -41 -8 -82l-57 -321q-4 -20 -4 -39q0 -47 30 -71.5t103 -24.5h67l-32 -189h-68 q-352 0 -352 273q0 42 10 100l57 320q5 35 5 41q0 47 -32 70.5t-104 23.5h-47z" />
<glyph unicode="|" horiz-adv-x="770" d="M102 -369l326 1844h250l-326 -1844h-250z" />
<glyph unicode="}" horiz-adv-x="804" d="M-94 -369l33 189h69q88 0 127 37t53 123l66 366q15 87 56 142t128 75q-108 41 -108 185q0 40 8 81l57 322q4 20 4 39q0 47 -30 71.5t-103 24.5h-67l32 189h68q352 0 352 -273q0 -42 -10 -100l-57 -320q-4 -28 -4 -41q0 -47 31.5 -70.5t103.5 -23.5h47l-33 -188h-47 q-89 0 -127.5 -36.5t-54.5 -123.5l-66 -367q-27 -156 -130 -228.5t-331 -72.5h-67z" />
<glyph unicode="~" d="M57 582q49 36 128 62t163 26q85 0 245 -45t238 -45q137 0 242 82l39 -199q-49 -36 -128 -62t-163 -26q-85 0 -245 45t-238 45q-137 0 -242 -82z" />
<glyph unicode="&#xa1;" horiz-adv-x="671" d="M23 -430l229 1036h199l-136 -1036h-292zM254 924q0 62 42.5 103.5t109.5 41.5t109 -41.5t42 -103.5t-42 -104t-109 -42t-109.5 42t-42.5 104z" />
<glyph unicode="&#xa2;" horiz-adv-x="983" d="M70 457q0 175 72 319t212.5 231t325.5 87q39 0 86 -7l111 259h141l-123 -291q35 -14 88 -41l-88 -189q-51 30 -80 41l-287 -676h25q128 0 252 78l22 -188q-134 -80 -313 -80q-45 0 -65 2l-125 -295h-142l137 326q-119 45 -184 152.5t-65 271.5zM311 469q0 -170 99 -240 l282 668h-22q-109 0 -192 -59.5t-125 -156t-42 -212.5z" />
<glyph unicode="&#xa3;" horiz-adv-x="1003" d="M-55 170q170 56 252.5 135.5t128.5 245.5l30 108h-276l31 168h292l99 347q18 66 39 113t54.5 89.5t78 68t109 40t149.5 14.5q82 0 147 -10l-35 -193q-64 11 -102 11q-89 0 -132.5 -42t-70.5 -135l-86 -303h310l-31 -168h-326l-26 -94q-70 -248 -207 -354q8 -2 61 -12 t73 -13t57 -7.5t65 -4.5q126 0 223 59l20 -200q-49 -25 -123 -41.5t-149 -16.5q-79 0 -215.5 27t-198.5 27q-122 0 -223 -60z" />
<glyph unicode="&#xa4;" d="M119 201l162 164q-37 70 -37 157q0 88 37 158l-162 164l141 143l168 -170q70 31 152 31q81 0 151 -31l168 170l141 -143l-161 -164q36 -68 36 -158q0 -89 -36 -157l161 -164l-141 -144l-168 170q-67 -30 -151 -30t-152 30l-168 -170zM393 522q0 -81 54 -135.5t133 -54.5 q78 0 132 54.5t54 135.5t-54 136t-132 55t-132.5 -55t-54.5 -136z" />
<glyph unicode="&#xa5;" horiz-adv-x="1228" d="M115 248l30 168h322l25 133h-324l31 168h276l-274 758h243l220 -627l434 627h266l-541 -758h277l-31 -168h-321l-25 -133h324l-31 -168h-324l-43 -248h-254l43 248h-323z" />
<glyph unicode="&#xa6;" horiz-adv-x="770" d="M102 -369l142 799h250l-142 -799h-250zM287 676l141 799h250l-141 -799h-250z" />
<glyph unicode="&#xa7;" horiz-adv-x="1196" d="M14 2l95 186q170 -100 333 -100q119 0 217 47t150 141q-102 11 -191.5 37t-173 75.5t-143 117t-95.5 167.5t-36 222q0 144 49 260.5t133.5 190.5t196 113.5t239.5 39.5q211 0 398 -106l-94 -195q-163 100 -316 100q-109 0 -200.5 -45.5t-141.5 -136.5q101 -11 191 -37.5 t173.5 -75.5t143.5 -116.5t95.5 -166t35.5 -218.5q0 -145 -51.5 -262.5t-140 -192t-204.5 -114t-249 -39.5q-226 0 -414 108zM385 905q0 -90 27.5 -163t71.5 -121t107.5 -83.5t127.5 -54.5t139 -30v32q0 89 -27.5 161t-72.5 119.5t-108.5 83t-127 54t-137.5 29.5v-27z" />
<glyph unicode="&#xa8;" horiz-adv-x="1024" d="M307 1282q0 56 36 92.5t93 36.5t93 -36.5t36 -92.5t-36 -92.5t-93 -36.5t-93 36.5t-36 92.5zM721 1282q0 56 36 92.5t93 36.5t93 -36.5t36 -92.5t-36 -92.5t-93 -36.5t-93 36.5t-36 92.5z" />
<glyph unicode="&#xa9;" horiz-adv-x="1716" d="M123 737q0 161 59.5 302.5t161 242.5t242.5 159t299 58t299 -58t242.5 -159t161 -242.5t59.5 -302.5t-59.5 -302.5t-161 -242.5t-242.5 -159t-299 -58t-299 58t-242.5 159t-161 242.5t-59.5 302.5zM254 737q0 -180 84 -326.5t228.5 -228.5t318.5 -82t318.5 82 t228.5 228.5t84 326.5t-84 326.5t-228.5 228.5t-318.5 82t-318.5 -82t-228.5 -228.5t-84 -326.5zM549 729q0 189 103 293t272 104q125 0 221 -59l-39 -156q-87 66 -168 66q-92 0 -147.5 -63t-55.5 -183q0 -122 57 -182t150 -60q83 0 168 60l37 -139q-107 -66 -238 -66 q-163 0 -261.5 100.5t-98.5 284.5z" />
<glyph unicode="&#xaa;" horiz-adv-x="749" d="M143 1038q0 108 39 200t111.5 148t163.5 56q101 0 172 -82l12 65h170l-88 -497q-16 -93 -16 -119q0 -25 4 -31h-170q-6 9 -6 39q0 21 2 31q-77 -86 -181 -86q-96 0 -154.5 71t-58.5 205zM319 1055q0 -79 28.5 -115.5t76.5 -36.5q71 0 131 66l49 270q-56 53 -117 53 q-76 0 -122 -68t-46 -169z" />
<glyph unicode="&#xab;" horiz-adv-x="1087" d="M70 522l354 473h246l-359 -489l191 -457h-221zM479 522l355 473h245l-358 -489l190 -457h-221z" />
<glyph unicode="&#xac;" d="M92 561l37 205h999l-110 -627h-207l74 422h-793z" />
<glyph unicode="&#xad;" horiz-adv-x="831" d="M117 547l33 182h606l-33 -182h-606z" />
<glyph unicode="&#xae;" horiz-adv-x="1716" d="M123 737q0 161 59.5 302.5t161 242.5t242.5 159t299 58t299 -58t242.5 -159t161 -242.5t59.5 -302.5t-59.5 -302.5t-161 -242.5t-242.5 -159t-299 -58t-299 58t-242.5 159t-161 242.5t-59.5 302.5zM254 737q0 -180 84 -326.5t228.5 -228.5t318.5 -82t318.5 82 t228.5 228.5t84 326.5t-84 326.5t-228.5 228.5t-318.5 82t-318.5 -82t-228.5 -228.5t-84 -326.5zM592 358v750h313q140 0 217.5 -60.5t77.5 -175.5q0 -154 -143 -208l174 -306h-197l-157 281h-103v-281h-182zM774 768h115q66 0 97.5 23.5t31.5 72.5q0 51 -31.5 75t-97.5 24 h-115v-195z" />
<glyph unicode="&#xaf;" horiz-adv-x="1024" d="M295 1167l31 174h659l-31 -174h-659z" />
<glyph unicode="&#xb0;" horiz-adv-x="868" d="M209 1174q0 140 95 232.5t241 92.5t241 -92.5t95 -232.5t-95 -233t-241 -93t-241 93t-95 233zM358 1174q0 -82 53.5 -136.5t133.5 -54.5t133 54.5t53 136.5t-53 136t-133 54t-133.5 -54t-53.5 -136z" />
<glyph unicode="&#xb1;" d="M-14 -49l32 184h1000l-33 -184h-999zM90 541l33 186h397l55 317h205l-55 -317h397l-32 -186h-398l-55 -316h-205l55 316h-397z" />
<glyph unicode="&#xb2;" horiz-adv-x="735" d="M100 778l21 131q288 198 402 318.5t114 212.5q0 51 -31 80.5t-92 29.5q-126 0 -248 -125l-26 158q53 56 131 90.5t170 34.5q128 0 200 -68.5t72 -185.5q0 -126 -97 -244t-321 -284h346l-24 -148h-617z" />
<glyph unicode="&#xb3;" horiz-adv-x="718" d="M82 834l68 139q125 -66 227 -66q90 0 142 37.5t52 102.5q0 120 -200 120q-18 0 -92 -4l22 137q168 0 251 40.5t83 113.5q0 50 -35 76t-96 26q-102 0 -230 -75l-18 151q124 76 268 76q127 0 206 -58t79 -165q0 -174 -215 -244q160 -50 160 -203q0 -128 -103 -202t-272 -74 q-166 0 -297 72z" />
<glyph unicode="&#xb4;" horiz-adv-x="1024" d="M455 1149l225 326h309l-323 -326h-211z" />
<glyph unicode="&#xb5;" horiz-adv-x="1191" d="M-25 -430l258 1474h254l-125 -704q-4 -24 -4 -41q0 -111 119 -111q77 0 145 38.5t142 109.5l125 708h254l-185 -1044h-253l26 150q-78 -78 -173 -126.5t-193 -48.5q-51 0 -95 15q-12 -178 -51 -420h-244z" />
<glyph unicode="&#xb6;" horiz-adv-x="1091" d="M137 907q0 78 23 148.5t72 132.5t120 107.5t173.5 71.5t226.5 26l-158 -887q-216 0 -336.5 109.5t-120.5 291.5zM303 -4q71 15 119 29.5t97 38t80 54.5t54.5 78t34.5 109l193 1088h215l-193 -1088q-21 -123 -62 -206t-113 -140.5t-166.5 -91.5t-237.5 -62z" />
<glyph unicode="&#xb7;" horiz-adv-x="598" d="M137 526q0 67 44 111.5t114 44.5t114 -44.5t44 -111.5t-44 -111t-114 -44t-114 44t-44 111z" />
<glyph unicode="&#xb8;" horiz-adv-x="1024" d="M111 -346l57 127q82 -47 158 -47q54 0 84 24t30 58t-31 63t-106 43l45 90q281 -19 281 -205q0 -100 -75.5 -157.5t-205.5 -57.5q-123 0 -237 62z" />
<glyph unicode="&#xb9;" horiz-adv-x="507" d="M219 1579l234 113h141l-162 -914h-176l127 717l-137 -68z" />
<glyph unicode="&#xba;" horiz-adv-x="727" d="M145 1055q0 166 102 276.5t257 110.5q123 0 199.5 -76t76.5 -217q0 -166 -101.5 -276.5t-256.5 -110.5q-123 0 -200 76t-77 217zM322 1055q0 -79 29 -121.5t83 -42.5q76 0 123 74.5t47 179.5q0 79 -29 121.5t-83 42.5q-76 0 -123 -74.5t-47 -179.5z" />
<glyph unicode="&#xbb;" horiz-adv-x="1087" d="M4 49l358 490l-190 456h221l211 -473l-354 -473h-246zM414 49l358 490l-190 456h221l211 -473l-355 -473h-245z" />
<glyph unicode="&#xbc;" horiz-adv-x="1589" d="M82 0l1173 1475h220l-1174 -1475h-219zM162 1362l233 113h142l-162 -914h-176l127 717l-138 -68zM743 180l25 139l489 594h220l-105 -587h133l-24 -146h-133l-33 -180h-172l33 180h-433zM946 326h254l72 395z" />
<glyph unicode="&#xbd;" horiz-adv-x="1705" d="M82 0l1173 1475h220l-1174 -1475h-219zM178 1362l234 113h141l-162 -914h-176l127 717l-137 -68zM913 0l21 131q288 198 402 318.5t114 212.5q0 51 -31 80.5t-92 29.5q-126 0 -248 -125l-26 158q53 56 131 90.5t170 34.5q128 0 200 -68.5t72 -185.5q0 -126 -97.5 -245 t-320.5 -284h346l-24 -147h-617z" />
<glyph unicode="&#xbe;" horiz-adv-x="1734" d="M25 616l67 140q125 -66 227 -66q91 0 143 37t52 102q0 121 -201 121q-18 0 -92 -4l23 137q168 0 251 40.5t83 113.5q0 50 -35 76t-97 26q-101 0 -229 -75l-18 151q124 76 268 76q127 0 206 -58t79 -165q0 -174 -215 -244q159 -50 159 -203q0 -128 -102.5 -202t-271.5 -74 q-168 0 -297 71zM231 0l1174 1475h219l-1173 -1475h-220zM893 180l25 139l489 594h219l-104 -587h133l-25 -146h-133l-33 -180h-172l33 180h-432zM1096 326h254l71 395z" />
<glyph unicode="&#xbf;" horiz-adv-x="878" d="M-18 -111q0 77 28 144t72.5 115t98.5 91t108.5 81t99 76t72.5 85t28 99v26h199q8 -62 8 -76q0 -57 -25.5 -108t-66 -91t-89.5 -78t-98 -74.5t-89.5 -74t-66 -84t-25.5 -96.5q0 -86 66 -130t173 -44q73 0 191 23l-35 -201q-118 -27 -215 -27q-196 0 -315 89.5t-119 254.5z M494 924q0 62 42 103.5t109 41.5t109.5 -41.5t42.5 -103.5t-42.5 -104t-109.5 -42t-109 42t-42 104z" />
<glyph unicode="&#xc0;" horiz-adv-x="1404" d="M-41 0l764 1475h305l234 -1475h-256l-50 344h-557l-170 -344h-270zM500 547h426l-97 670zM625 1862h274l156 -285h-197z" />
<glyph unicode="&#xc1;" horiz-adv-x="1404" d="M-41 0l764 1475h305l234 -1475h-256l-50 344h-557l-170 -344h-270zM500 547h426l-97 670zM721 1577l217 285h311l-317 -285h-211z" />
<glyph unicode="&#xc2;" horiz-adv-x="1404" d="M-41 0l764 1475h305l234 -1475h-256l-50 344h-557l-170 -344h-270zM500 547h426l-97 670zM528 1577l310 285h200l209 -285h-178l-149 115l-189 -115h-203z" />
<glyph unicode="&#xc3;" horiz-adv-x="1404" d="M-41 0l764 1475h305l234 -1475h-256l-50 344h-557l-170 -344h-270zM500 547h426l-97 670zM528 1577q49 264 234 264q54 0 112.5 -23.5t107 -47t79.5 -23.5q62 0 78 82h151q-49 -264 -233 -264q-54 0 -112.5 23.5t-107 47t-79.5 23.5q-62 0 -78 -82h-152z" />
<glyph unicode="&#xc4;" horiz-adv-x="1404" d="M-41 0l764 1475h305l234 -1475h-256l-50 344h-557l-170 -344h-270zM500 547h426l-97 670zM582 1704q0 56 36 92.5t93 36.5t93 -36.5t36 -92.5t-36 -92.5t-93 -36.5t-93 36.5t-36 92.5zM995 1704q0 56 36 92.5t93 36.5t93 -36.5t36 -92.5t-36 -92.5t-93 -36.5t-93 36.5 t-36 92.5z" />
<glyph unicode="&#xc5;" horiz-adv-x="1404" d="M-41 0l739 1430q-30 46 -30 106q0 84 60.5 141.5t152.5 57.5t152.5 -57.5t60.5 -141.5q0 -79 -56 -135l224 -1401h-256l-50 344h-557l-170 -344h-270zM500 547h426l-97 670zM784 1536q0 -38 27 -64t70 -26q42 0 68 26t26 64t-26 64t-68 26q-43 0 -70 -26t-27 -64z" />
<glyph unicode="&#xc6;" horiz-adv-x="1929" d="M-51 0l1028 1475h1026l-39 -226h-621l-69 -389h534l-36 -213h-535l-78 -430h627l-37 -217h-885l60 344h-453l-231 -344h-291zM608 547h353l124 706z" />
<glyph unicode="&#xc7;" horiz-adv-x="1236" d="M113 606q0 140 33 271.5t99 244t159 197t220.5 132.5t274.5 48q231 0 408 -117l-103 -217q-83 56 -157.5 83.5t-161.5 27.5q-99 0 -183.5 -36.5t-144.5 -99t-102.5 -146.5t-63 -179.5t-20.5 -196.5q0 -215 91 -320t247 -105q178 0 352 122l26 -219q-174 -113 -385 -121 q113 -50 113 -168q0 -100 -75 -157.5t-205 -57.5q-124 0 -238 62l57 127q82 -47 158 -47q54 0 84.5 24t30.5 58t-31.5 63t-106.5 43l35 70q-192 43 -301.5 198.5t-109.5 415.5z" />
<glyph unicode="&#xc8;" horiz-adv-x="1206" d="M82 0l260 1475h938l-39 -226h-680l-69 -389h593l-36 -213h-594l-78 -430h686l-37 -217h-944zM567 1862h275l155 -285h-196z" />
<glyph unicode="&#xc9;" horiz-adv-x="1206" d="M82 0l260 1475h938l-39 -226h-680l-69 -389h593l-36 -213h-594l-78 -430h686l-37 -217h-944zM664 1577l217 285h311l-318 -285h-210z" />
<glyph unicode="&#xca;" horiz-adv-x="1206" d="M82 0l260 1475h938l-39 -226h-680l-69 -389h593l-36 -213h-594l-78 -430h686l-37 -217h-944zM471 1577l309 285h201l209 -285h-178l-150 115l-188 -115h-203z" />
<glyph unicode="&#xcb;" horiz-adv-x="1206" d="M82 0l260 1475h938l-39 -226h-680l-69 -389h593l-36 -213h-594l-78 -430h686l-37 -217h-944zM526 1704q0 56 36 92.5t93 36.5t93 -36.5t36 -92.5t-36 -92.5t-93 -36.5t-93 36.5t-36 92.5zM940 1704q0 56 36 92.5t93 36.5t93 -36.5t36 -92.5t-36 -92.5t-93 -36.5t-93 36.5 t-36 92.5z" />
<glyph unicode="&#xcc;" horiz-adv-x="634" d="M96 0l260 1475h258l-260 -1475h-258zM240 1862h274l156 -285h-197z" />
<glyph unicode="&#xcd;" horiz-adv-x="634" d="M96 0l260 1475h258l-260 -1475h-258zM336 1577l217 285h311l-317 -285h-211z" />
<glyph unicode="&#xce;" horiz-adv-x="634" d="M96 0l260 1475h258l-260 -1475h-258zM143 1577l310 285h200l209 -285h-178l-149 115l-189 -115h-203z" />
<glyph unicode="&#xcf;" horiz-adv-x="634" d="M96 0l260 1475h258l-260 -1475h-258zM197 1704q0 56 36 92.5t93 36.5t93 -36.5t36 -92.5t-36 -92.5t-93 -36.5t-93 36.5t-36 92.5zM610 1704q0 56 36 92.5t93 36.5t93 -36.5t36 -92.5t-36 -92.5t-93 -36.5t-93 36.5t-36 92.5z" />
<glyph unicode="&#xd0;" horiz-adv-x="1452" d="M49 668l33 176h145l113 631h453q282 0 449 -170t167 -471q0 -131 -33 -253.5t-100.5 -228t-162 -184t-224.5 -123.5t-281 -45h-528l117 668h-148zM377 217h231q132 0 238 51t171 137t99.5 194t34.5 228q0 208 -97.5 315t-260.5 107h-234l-72 -405h330l-31 -176h-329z" />
<glyph unicode="&#xd1;" horiz-adv-x="1478" d="M80 0l260 1475h276l439 -1008l178 1008h240l-261 -1475h-215l-483 1112l-195 -1112h-239zM565 1577q49 264 234 264q54 0 112.5 -23.5t107 -47t79.5 -23.5q62 0 78 82h151q-49 -264 -233 -264q-54 0 -112.5 23.5t-107 47t-79.5 23.5q-62 0 -78 -82h-152z" />
<glyph unicode="&#xd2;" horiz-adv-x="1474" d="M115 645q0 175 54 332t148.5 272t231.5 182.5t295 67.5q263 0 427.5 -177.5t164.5 -492.5q0 -175 -54 -332t-148.5 -272t-231.5 -182.5t-295 -67.5q-263 0 -427.5 177.5t-164.5 492.5zM373 645q0 -221 92.5 -338t251.5 -117q102 0 189 50t146.5 135.5t92.5 201t33 244.5 q0 221 -92.5 338t-251.5 117q-102 0 -189 -50t-146.5 -135.5t-92.5 -201t-33 -244.5zM639 1862h274l156 -285h-197z" />
<glyph unicode="&#xd3;" horiz-adv-x="1474" d="M115 645q0 175 54 332t148.5 272t231.5 182.5t295 67.5q263 0 427.5 -177.5t164.5 -492.5q0 -175 -54 -332t-148.5 -272t-231.5 -182.5t-295 -67.5q-263 0 -427.5 177.5t-164.5 492.5zM373 645q0 -221 92.5 -338t251.5 -117q102 0 189 50t146.5 135.5t92.5 201t33 244.5 q0 221 -92.5 338t-251.5 117q-102 0 -189 -50t-146.5 -135.5t-92.5 -201t-33 -244.5zM735 1577l217 285h312l-318 -285h-211z" />
<glyph unicode="&#xd4;" horiz-adv-x="1474" d="M115 645q0 175 54 332t148.5 272t231.5 182.5t295 67.5q263 0 427.5 -177.5t164.5 -492.5q0 -175 -54 -332t-148.5 -272t-231.5 -182.5t-295 -67.5q-263 0 -427.5 177.5t-164.5 492.5zM373 645q0 -221 92.5 -338t251.5 -117q102 0 189 50t146.5 135.5t92.5 201t33 244.5 q0 221 -92.5 338t-251.5 117q-102 0 -189 -50t-146.5 -135.5t-92.5 -201t-33 -244.5zM543 1577l309 285h201l209 -285h-179l-149 115l-189 -115h-202z" />
<glyph unicode="&#xd5;" horiz-adv-x="1474" d="M115 645q0 175 54 332t148.5 272t231.5 182.5t295 67.5q263 0 427.5 -177.5t164.5 -492.5q0 -175 -54 -332t-148.5 -272t-231.5 -182.5t-295 -67.5q-263 0 -427.5 177.5t-164.5 492.5zM373 645q0 -221 92.5 -338t251.5 -117q102 0 189 50t146.5 135.5t92.5 201t33 244.5 q0 221 -92.5 338t-251.5 117q-102 0 -189 -50t-146.5 -135.5t-92.5 -201t-33 -244.5zM539 1577q49 264 233 264q54 0 112.5 -23.5t107 -47t79.5 -23.5q62 0 78 82h151q-49 -264 -233 -264q-54 0 -112.5 23.5t-107 47t-79.5 23.5q-62 0 -78 -82h-151z" />
<glyph unicode="&#xd6;" horiz-adv-x="1474" d="M115 645q0 175 54 332t148.5 272t231.5 182.5t295 67.5q263 0 427.5 -177.5t164.5 -492.5q0 -175 -54 -332t-148.5 -272t-231.5 -182.5t-295 -67.5q-263 0 -427.5 177.5t-164.5 492.5zM373 645q0 -221 92.5 -338t251.5 -117q102 0 189 50t146.5 135.5t92.5 201t33 244.5 q0 221 -92.5 338t-251.5 117q-102 0 -189 -50t-146.5 -135.5t-92.5 -201t-33 -244.5zM596 1704q0 56 36 92.5t93 36.5t93 -36.5t36 -92.5t-36 -92.5t-93 -36.5t-93 36.5t-36 92.5zM1010 1704q0 56 36 92.5t93 36.5t93 -36.5t36 -92.5t-36 -92.5t-93 -36.5t-93 36.5t-36 92.5 z" />
<glyph unicode="&#xd7;" d="M68 215l376 320l-264 325l156 127l262 -321l379 321l127 -158l-377 -319l264 -326l-155 -127l-263 322l-378 -322z" />
<glyph unicode="&#xd8;" horiz-adv-x="1474" d="M-23 90l211 199q-73 149 -73 356q0 175 54 332t148.5 272t231.5 182.5t295 67.5q271 0 432 -184l194 184l103 -115l-211 -198q74 -154 74 -357q0 -175 -54 -332t-148.5 -272t-231.5 -182.5t-295 -67.5q-132 0 -243.5 47t-189.5 136l-194 -183zM365 645q0 -97 18 -174 l719 680q-92 133 -266 133q-139 0 -247.5 -86.5t-166 -231.5t-57.5 -321zM444 319q91 -137 271 -137q139 0 247.5 86.5t166 231t57.5 317.5q0 93 -21 182z" />
<glyph unicode="&#xd9;" horiz-adv-x="1409" d="M143 399q0 64 17 168l159 908h259l-166 -940q-11 -56 -11 -105q0 -123 62.5 -177t187.5 -54q151 0 238.5 79t118.5 259l166 938h251l-172 -975q-49 -272 -202 -398.5t-416 -126.5q-492 0 -492 424zM627 1862h274l156 -285h-197z" />
<glyph unicode="&#xda;" horiz-adv-x="1409" d="M143 399q0 64 17 168l159 908h259l-166 -940q-11 -56 -11 -105q0 -123 62.5 -177t187.5 -54q151 0 238.5 79t118.5 259l166 938h251l-172 -975q-49 -272 -202 -398.5t-416 -126.5q-492 0 -492 424zM723 1577l217 285h311l-317 -285h-211z" />
<glyph unicode="&#xdb;" horiz-adv-x="1409" d="M143 399q0 64 17 168l159 908h259l-166 -940q-11 -56 -11 -105q0 -123 62.5 -177t187.5 -54q151 0 238.5 79t118.5 259l166 938h251l-172 -975q-49 -272 -202 -398.5t-416 -126.5q-492 0 -492 424zM530 1577l310 285h200l209 -285h-178l-149 115l-189 -115h-203z" />
<glyph unicode="&#xdc;" horiz-adv-x="1409" d="M143 399q0 64 17 168l159 908h259l-166 -940q-11 -56 -11 -105q0 -123 62.5 -177t187.5 -54q151 0 238.5 79t118.5 259l166 938h251l-172 -975q-49 -272 -202 -398.5t-416 -126.5q-492 0 -492 424zM584 1704q0 56 36 92.5t93 36.5t93 -36.5t36 -92.5t-36 -92.5t-93 -36.5 t-93 36.5t-36 92.5zM997 1704q0 56 36 92.5t93 36.5t93 -36.5t36 -92.5t-36 -92.5t-93 -36.5t-93 36.5t-36 92.5z" />
<glyph unicode="&#xdd;" horiz-adv-x="1292" d="M201 1475h254l235 -621l455 621h282l-636 -863l-109 -612h-258l106 608zM668 1577l217 285h311l-317 -285h-211z" />
<glyph unicode="&#xde;" horiz-adv-x="1296" d="M80 0l260 1475h254l-37 -205h240q233 0 363 -107.5t130 -316.5q0 -229 -156.5 -358.5t-441.5 -129.5h-293l-63 -358h-256zM438 571h254q170 0 256 68.5t86 194.5q0 215 -258 215h-254z" />
<glyph unicode="&#xdf;" horiz-adv-x="1257" d="M49 0l189 1067q37 210 168.5 321t338.5 111q188 0 307 -90.5t119 -261.5q0 -132 -74 -223t-206 -133q132 -43 201 -138t69 -235q0 -201 -130.5 -322t-344.5 -121q-141 0 -250 45l68 181q79 -33 160 -33q111 0 177 68.5t66 191.5q0 134 -82 199t-225 65l35 193 q124 0 208.5 61t84.5 176q0 92 -53.5 135t-133.5 43q-208 0 -256 -266l-182 -1034h-254z" />
<glyph unicode="&#xe0;" d="M66 408q0 180 66 331t184.5 240.5t263.5 89.5q83 0 148.5 -33t129.5 -108l21 116h243l-141 -800q-27 -162 -27 -201q0 -29 7 -43h-248q-13 26 -13 61q0 29 7 58q-131 -144 -301 -144q-153 0 -246.5 110t-93.5 323zM319 436q0 -134 50.5 -196t134.5 -62q118 0 233 121 l82 459q-91 94 -196 94q-91 0 -161.5 -57.5t-106.5 -151.5t-36 -207zM455 1475h270l149 -326h-194z" />
<glyph unicode="&#xe1;" d="M66 408q0 180 66 331t184.5 240.5t263.5 89.5q83 0 148.5 -33t129.5 -108l21 116h243l-141 -800q-27 -162 -27 -201q0 -29 7 -43h-248q-13 26 -13 61q0 29 7 58q-131 -144 -301 -144q-153 0 -246.5 110t-93.5 323zM319 436q0 -134 50.5 -196t134.5 -62q118 0 233 121 l82 459q-91 94 -196 94q-91 0 -161.5 -57.5t-106.5 -151.5t-36 -207zM514 1149l225 326h310l-324 -326h-211z" />
<glyph unicode="&#xe2;" d="M66 408q0 180 66 331t184.5 240.5t263.5 89.5q83 0 148.5 -33t129.5 -108l21 116h243l-141 -800q-27 -162 -27 -201q0 -29 7 -43h-248q-13 26 -13 61q0 29 7 58q-131 -144 -301 -144q-153 0 -246.5 110t-93.5 323zM319 436q0 -134 50.5 -196t134.5 -62q118 0 233 121 l82 459q-91 94 -196 94q-91 0 -161.5 -57.5t-106.5 -151.5t-36 -207zM350 1149l316 326h198l201 -326h-172l-145 158l-199 -158h-199z" />
<glyph unicode="&#xe3;" d="M66 408q0 180 66 331t184.5 240.5t263.5 89.5q83 0 148.5 -33t129.5 -108l21 116h243l-141 -800q-27 -162 -27 -201q0 -29 7 -43h-248q-13 26 -13 61q0 29 7 58q-131 -144 -301 -144q-153 0 -246.5 110t-93.5 323zM319 436q0 -134 50.5 -196t134.5 -62q118 0 233 121 l82 459q-91 94 -196 94q-91 0 -161.5 -57.5t-106.5 -151.5t-36 -207zM352 1161q47 273 230 273q58 0 116 -28t105.5 -55.5t79.5 -27.5q65 0 82 98h149q-47 -272 -229 -272q-46 0 -93 17.5t-78.5 38t-67.5 38t-62 17.5q-65 0 -82 -99h-150z" />
<glyph unicode="&#xe4;" d="M66 408q0 180 66 331t184.5 240.5t263.5 89.5q83 0 148.5 -33t129.5 -108l21 116h243l-141 -800q-27 -162 -27 -201q0 -29 7 -43h-248q-13 26 -13 61q0 29 7 58q-131 -144 -301 -144q-153 0 -246.5 110t-93.5 323zM319 436q0 -134 50.5 -196t134.5 -62q118 0 233 121 l82 459q-91 94 -196 94q-91 0 -161.5 -57.5t-106.5 -151.5t-36 -207zM391 1282q0 56 36 92.5t93 36.5t93 -36.5t36 -92.5t-36 -92.5t-93 -36.5t-93 36.5t-36 92.5zM805 1282q0 56 36 92.5t93 36.5t93 -36.5t36 -92.5t-36 -92.5t-93 -36.5t-93 36.5t-36 92.5z" />
<glyph unicode="&#xe5;" d="M66 408q0 180 66 331t184.5 240.5t263.5 89.5q83 0 148.5 -33t129.5 -108l21 116h243l-141 -800q-27 -162 -27 -201q0 -29 7 -43h-248q-13 26 -13 61q0 29 7 58q-131 -144 -301 -144q-153 0 -246.5 110t-93.5 323zM319 436q0 -134 50.5 -196t134.5 -62q118 0 233 121 l82 459q-91 94 -196 94q-91 0 -161.5 -57.5t-106.5 -151.5t-36 -207zM537 1341q0 84 56.5 141.5t143.5 57.5t144 -57.5t57 -141.5t-57 -141t-144 -57t-143.5 57t-56.5 141zM647 1341q0 -38 25 -64t65 -26t65 26t25 64t-25 64.5t-65 26.5t-65 -26.5t-25 -64.5z" />
<glyph unicode="&#xe6;" horiz-adv-x="1734" d="M33 272q0 170 138.5 273.5t389.5 103.5q75 0 166 -12l8 41q8 50 8 74q0 60 -40.5 87t-120.5 27q-145 0 -349 -92l-18 199q200 96 426 96q225 0 305 -117q152 117 359 117q181 0 279.5 -86.5t98.5 -216.5q0 -153 -144 -245.5t-445 -92.5q-72 0 -136 6q6 -268 250 -268 q155 0 324 88l22 -191q-178 -88 -387 -88q-275 0 -389 172q-84 -78 -192 -125t-224 -47q-147 0 -238 78t-91 219zM281 301q0 -63 42.5 -98t114.5 -35q140 0 281 125q-14 57 -14 137q0 35 2 53q-83 11 -132 11q-141 0 -217.5 -54t-76.5 -139zM975 592q37 -4 108 -4 q363 0 363 166q0 57 -40 94t-116 37q-112 0 -197 -81t-118 -212z" />
<glyph unicode="&#xe7;" horiz-adv-x="933" d="M66 430q0 130 41 246t116 203.5t188.5 138.5t250.5 51q162 0 288 -80l-86 -192q-101 69 -202 69q-156 0 -249.5 -122.5t-93.5 -299.5q0 -136 57.5 -204t160.5 -68q121 0 237 78l19 -195q-101 -65 -248 -78q117 -51 117 -170q0 -100 -75.5 -157.5t-205.5 -57.5 q-124 0 -238 62l58 127q82 -47 157 -47q54 0 84.5 24t30.5 58t-31 63t-106 43l33 66q-142 32 -222.5 144t-80.5 298z" />
<glyph unicode="&#xe8;" horiz-adv-x="1093" d="M66 430q0 178 74.5 323.5t212.5 230.5t313 85q181 0 279.5 -86.5t98.5 -216.5q0 -153 -144 -245.5t-445 -92.5q-71 0 -136 6q6 -268 250 -268q155 0 324 88l22 -191q-178 -88 -385 -88q-223 0 -343.5 116.5t-120.5 338.5zM336 592q37 -4 108 -4q363 0 363 166 q0 57 -40 94t-116 37q-112 0 -197 -81t-118 -212zM430 1475h270l150 -326h-195z" />
<glyph unicode="&#xe9;" horiz-adv-x="1093" d="M66 430q0 178 74.5 323.5t212.5 230.5t313 85q181 0 279.5 -86.5t98.5 -216.5q0 -153 -144 -245.5t-445 -92.5q-71 0 -136 6q6 -268 250 -268q155 0 324 88l22 -191q-178 -88 -385 -88q-223 0 -343.5 116.5t-120.5 338.5zM336 592q37 -4 108 -4q363 0 363 166 q0 57 -40 94t-116 37q-112 0 -197 -81t-118 -212zM496 1149l225 326h309l-323 -326h-211z" />
<glyph unicode="&#xea;" horiz-adv-x="1093" d="M66 430q0 178 74.5 323.5t212.5 230.5t313 85q181 0 279.5 -86.5t98.5 -216.5q0 -153 -144 -245.5t-445 -92.5q-71 0 -136 6q6 -268 250 -268q155 0 324 88l22 -191q-178 -88 -385 -88q-223 0 -343.5 116.5t-120.5 338.5zM315 1149l316 326h198l201 -326h-172l-145 158 l-199 -158h-199zM336 592q37 -4 108 -4q363 0 363 166q0 57 -40 94t-116 37q-112 0 -197 -81t-118 -212z" />
<glyph unicode="&#xeb;" horiz-adv-x="1093" d="M66 430q0 178 74.5 323.5t212.5 230.5t313 85q181 0 279.5 -86.5t98.5 -216.5q0 -153 -144 -245.5t-445 -92.5q-71 0 -136 6q6 -268 250 -268q155 0 324 88l22 -191q-178 -88 -385 -88q-223 0 -343.5 116.5t-120.5 338.5zM336 592q37 -4 108 -4q363 0 363 166 q0 57 -40 94t-116 37q-112 0 -197 -81t-118 -212zM356 1282q0 56 36 92.5t93 36.5t93 -36.5t36 -92.5t-36 -92.5t-93 -36.5t-93 36.5t-36 92.5zM770 1282q0 56 36 92.5t93 36.5t93 -36.5t36 -92.5t-36 -92.5t-93 -36.5t-93 36.5t-36 92.5z" />
<glyph unicode="&#xec;" horiz-adv-x="561" d="M61 0l185 1044h254l-185 -1044h-254zM137 1475h271l149 -326h-195z" />
<glyph unicode="&#xed;" horiz-adv-x="561" d="M61 0l185 1044h254l-185 -1044h-254zM223 1149l226 326h309l-324 -326h-211z" />
<glyph unicode="&#xee;" horiz-adv-x="561" d="M33 1149l315 326h199l201 -326h-173l-145 158l-199 -158h-198zM61 0l185 1044h254l-185 -1044h-254z" />
<glyph unicode="&#xef;" horiz-adv-x="561" d="M61 0l185 1044h254l-185 -1044h-254zM74 1282q0 56 36 92.5t93 36.5t93 -36.5t36 -92.5t-36 -92.5t-93 -36.5t-93 36.5t-36 92.5zM487 1282q0 56 36 92.5t93 36.5t93 -36.5t36 -92.5t-36 -92.5t-93 -36.5t-93 36.5t-36 92.5z" />
<glyph unicode="&#xf0;" horiz-adv-x="1142" d="M61 432q0 246 145.5 409t360.5 163q157 0 248 -105q-26 134 -80 252l-160 -55l-49 137l140 47q-51 81 -84 127l168 113q66 -72 124 -166l160 55l49 -137l-139 -49q127 -270 127 -564q0 -163 -43.5 -293.5t-120 -215.5t-179 -130t-222.5 -45q-94 0 -173.5 28t-141 83 t-96 144t-34.5 202zM315 428q0 -133 57 -197.5t152 -64.5q128 0 210.5 107.5t82.5 271.5q0 133 -56.5 196.5t-150.5 63.5q-130 0 -212.5 -106.5t-82.5 -270.5z" />
<glyph unicode="&#xf1;" horiz-adv-x="1173" d="M49 0l184 1044h254l-26 -149q174 174 373 174q51 0 95 -12.5t83 -39.5t61.5 -77.5t22.5 -118.5q0 -42 -11 -102l-127 -719h-253l122 696q4 24 4 41q0 111 -118 111q-77 0 -145 -38.5t-142 -109.5l-123 -700h-254zM350 1161q47 273 230 273q58 0 116 -28t105.5 -55.5 t79.5 -27.5q65 0 82 98h149q-47 -272 -229 -272q-46 0 -93 17.5t-78.5 38t-67.5 38t-62 17.5q-65 0 -82 -99h-150z" />
<glyph unicode="&#xf2;" horiz-adv-x="1142" d="M66 446q0 172 71 314t201 225.5t293 83.5q95 0 175.5 -29.5t141 -86.5t95 -148t34.5 -207q0 -172 -71 -314t-201 -225.5t-293 -83.5q-95 0 -175.5 29.5t-141 86.5t-95 148t-34.5 207zM319 449q0 -142 55.5 -213.5t151.5 -71.5q132 0 214.5 125t82.5 301q0 142 -55.5 213 t-151.5 71q-132 0 -214.5 -125t-82.5 -300zM408 1475h270l149 -326h-194z" />
<glyph unicode="&#xf3;" horiz-adv-x="1142" d="M66 446q0 172 71 314t201 225.5t293 83.5q95 0 175.5 -29.5t141 -86.5t95 -148t34.5 -207q0 -172 -71 -314t-201 -225.5t-293 -83.5q-95 0 -175.5 29.5t-141 86.5t-95 148t-34.5 207zM319 449q0 -142 55.5 -213.5t151.5 -71.5q132 0 214.5 125t82.5 301q0 142 -55.5 213 t-151.5 71q-132 0 -214.5 -125t-82.5 -300zM494 1149l225 326h309l-323 -326h-211z" />
<glyph unicode="&#xf4;" horiz-adv-x="1142" d="M66 446q0 172 71 314t201 225.5t293 83.5q95 0 175.5 -29.5t141 -86.5t95 -148t34.5 -207q0 -172 -71 -314t-201 -225.5t-293 -83.5q-95 0 -175.5 29.5t-141 86.5t-95 148t-34.5 207zM303 1149l315 326h199l201 -326h-172l-146 158l-198 -158h-199zM319 449 q0 -142 55.5 -213.5t151.5 -71.5q132 0 214.5 125t82.5 301q0 142 -55.5 213t-151.5 71q-132 0 -214.5 -125t-82.5 -300z" />
<glyph unicode="&#xf5;" horiz-adv-x="1142" d="M66 446q0 172 71 314t201 225.5t293 83.5q95 0 175.5 -29.5t141 -86.5t95 -148t34.5 -207q0 -172 -71 -314t-201 -225.5t-293 -83.5q-95 0 -175.5 29.5t-141 86.5t-95 148t-34.5 207zM305 1161q47 273 230 273q58 0 116 -28t105.5 -55.5t79.5 -27.5q65 0 82 98h149 q-47 -272 -229 -272q-46 0 -93 17.5t-78.5 38t-67.5 38t-62 17.5q-65 0 -82 -99h-150zM319 449q0 -142 55.5 -213.5t151.5 -71.5q132 0 214.5 125t82.5 301q0 142 -55.5 213t-151.5 71q-132 0 -214.5 -125t-82.5 -300z" />
<glyph unicode="&#xf6;" horiz-adv-x="1142" d="M66 446q0 172 71 314t201 225.5t293 83.5q95 0 175.5 -29.5t141 -86.5t95 -148t34.5 -207q0 -172 -71 -314t-201 -225.5t-293 -83.5q-95 0 -175.5 29.5t-141 86.5t-95 148t-34.5 207zM319 449q0 -142 55.5 -213.5t151.5 -71.5q132 0 214.5 125t82.5 301q0 142 -55.5 213 t-151.5 71q-132 0 -214.5 -125t-82.5 -300zM344 1282q0 56 36 92.5t93 36.5t93 -36.5t36 -92.5t-36 -92.5t-93 -36.5t-93 36.5t-36 92.5zM758 1282q0 56 36 92.5t93 36.5t93 -36.5t36 -92.5t-36 -92.5t-93 -36.5t-93 36.5t-36 92.5z" />
<glyph unicode="&#xf7;" d="M68 420l36 205h1000l-37 -205h-999zM373 129q0 60 38.5 97.5t102.5 37.5q65 0 104 -37t39 -98q0 -59 -39 -96t-104 -37q-64 0 -102.5 37t-38.5 96zM514 915q0 59 39 96.5t104 37.5q64 0 103 -37.5t39 -96.5q0 -60 -39 -97.5t-103 -37.5q-65 0 -104 37t-39 98z" />
<glyph unicode="&#xf8;" horiz-adv-x="1142" d="M-39 37l162 151q-57 108 -57 258q0 172 70.5 314t200.5 225.5t292 83.5q189 0 309 -108l152 143l92 -96l-162 -154q57 -111 57 -258q0 -171 -71 -312.5t-201.5 -225t-294.5 -83.5q-187 0 -305 109l-152 -143zM307 449q0 -34 4 -80l467 440q-57 78 -162 78 q-92 0 -163.5 -61.5t-108.5 -160.5t-37 -216zM360 231q58 -79 166 -79q138 0 224 128.5t86 309.5q0 37 -7 84z" />
<glyph unicode="&#xf9;" horiz-adv-x="1173" d="M76 223q0 48 10 103l127 718h254l-125 -704q-4 -24 -4 -41q0 -111 119 -111q77 0 144.5 38.5t141.5 109.5l125 708h254l-184 -1044h-254l27 150q-175 -175 -373 -175q-51 0 -95 12.5t-83 39.5t-61.5 77.5t-22.5 118.5zM434 1475h271l149 -326h-195z" />
<glyph unicode="&#xfa;" horiz-adv-x="1173" d="M76 223q0 48 10 103l127 718h254l-125 -704q-4 -24 -4 -41q0 -111 119 -111q77 0 144.5 38.5t141.5 109.5l125 708h254l-184 -1044h-254l27 150q-175 -175 -373 -175q-51 0 -95 12.5t-83 39.5t-61.5 77.5t-22.5 118.5zM520 1149l225 326h310l-324 -326h-211z" />
<glyph unicode="&#xfb;" horiz-adv-x="1173" d="M76 223q0 48 10 103l127 718h254l-125 -704q-4 -24 -4 -41q0 -111 119 -111q77 0 144.5 38.5t141.5 109.5l125 708h254l-184 -1044h-254l27 150q-175 -175 -373 -175q-51 0 -95 12.5t-83 39.5t-61.5 77.5t-22.5 118.5zM330 1149l315 326h199l200 -326h-172l-145 158 l-199 -158h-198z" />
<glyph unicode="&#xfc;" horiz-adv-x="1173" d="M76 223q0 48 10 103l127 718h254l-125 -704q-4 -24 -4 -41q0 -111 119 -111q77 0 144.5 38.5t141.5 109.5l125 708h254l-184 -1044h-254l27 150q-175 -175 -373 -175q-51 0 -95 12.5t-83 39.5t-61.5 77.5t-22.5 118.5zM371 1282q0 56 36 92.5t93 36.5t93 -36.5t36 -92.5 t-36 -92.5t-93 -36.5t-93 36.5t-36 92.5zM784 1282q0 56 36 92.5t93 36.5t93 -36.5t36 -92.5t-36 -92.5t-93 -36.5t-93 36.5t-36 92.5z" />
<glyph unicode="&#xfd;" horiz-adv-x="1038" d="M-100 -430l37 205q57 -11 102 -11q61 0 104 19.5t90.5 76t106.5 165.5h-74l-153 1019h264l88 -821l387 821h258l-532 -1056q-89 -177 -163.5 -268.5t-154.5 -126.5t-199 -35q-63 0 -161 12zM467 1149l225 326h309l-323 -326h-211z" />
<glyph unicode="&#xfe;" horiz-adv-x="1187" d="M-25 -430l332 1905h254l-96 -551q132 145 305 145q157 0 254.5 -115t97.5 -331q0 -176 -65 -324t-185 -236t-270 -88q-81 0 -148.5 29.5t-129.5 99.5l-95 -534h-254zM352 272q101 -94 209 -94q141 0 224 119t83 293q0 262 -192 262q-126 0 -244 -121z" />
<glyph unicode="&#xff;" horiz-adv-x="1038" d="M-100 -430l37 205q57 -11 102 -11q61 0 104 19.5t90.5 76t106.5 165.5h-74l-153 1019h264l88 -821l387 821h258l-532 -1056q-89 -177 -163.5 -268.5t-154.5 -126.5t-199 -35q-63 0 -161 12zM313 1282q0 56 36 92.5t93 36.5t93 -36.5t36 -92.5t-36 -92.5t-93 -36.5 t-93 36.5t-36 92.5zM727 1282q0 56 36 92.5t93 36.5t93 -36.5t36 -92.5t-36 -92.5t-93 -36.5t-93 36.5t-36 92.5z" />
<glyph unicode="&#x152;" horiz-adv-x="1923" d="M113 616q0 141 33 271t100 241.5t161.5 194t224 129.5t279.5 47q106 0 226 -24h860l-39 -226h-621l-69 -389h534l-37 -213h-534l-78 -430h627l-37 -217h-848q-125 -25 -211 -25q-261 0 -416 166t-155 475zM371 627q0 -218 93.5 -326t258.5 -108q85 0 174 24l182 1034 q-89 25 -174 25q-106 0 -194.5 -35.5t-150.5 -97t-105 -144.5t-63.5 -177t-20.5 -195z" />
<glyph unicode="&#x153;" horiz-adv-x="1845" d="M66 446q0 172 71 314t201 225.5t293 83.5q116 0 210.5 -43.5t153.5 -128.5q169 172 422 172q181 0 280 -86.5t99 -216.5q0 -153 -144.5 -245.5t-445.5 -92.5q-70 0 -135 6q6 -268 250 -268q155 0 324 88l22 -191q-178 -88 -387 -88q-263 0 -381 160q-157 -160 -387 -160 q-95 0 -175.5 29.5t-141 86.5t-95 148t-34.5 207zM319 449q0 -142 55.5 -213.5t151.5 -71.5q132 0 214.5 125t82.5 301q0 142 -55.5 213t-151.5 71q-132 0 -214.5 -125t-82.5 -300zM1087 592q37 -4 109 -4q363 0 363 166q0 57 -40 94t-116 37q-112 0 -197.5 -81t-118.5 -212 z" />
<glyph unicode="&#x178;" horiz-adv-x="1292" d="M201 1475h254l235 -621l455 621h282l-636 -863l-109 -612h-258l106 608zM526 1704q0 56 36 92.5t93 36.5t93 -36.5t36 -92.5t-36 -92.5t-93 -36.5t-93 36.5t-36 92.5zM940 1704q0 56 36 92.5t93 36.5t93 -36.5t36 -92.5t-36 -92.5t-93 -36.5t-93 36.5t-36 92.5z" />
<glyph unicode="&#x2c6;" horiz-adv-x="1024" d="M264 1149l316 326h198l201 -326h-172l-145 158l-199 -158h-199z" />
<glyph unicode="&#x2dc;" horiz-adv-x="1024" d="M266 1161q47 273 230 273q58 0 116 -28t105.5 -55.5t79.5 -27.5q65 0 82 98h149q-47 -272 -229 -272q-46 0 -93 17.5t-78.5 38t-67.5 38t-62 17.5q-65 0 -82 -99h-150z" />
<glyph unicode="&#x2000;" horiz-adv-x="931" />
<glyph unicode="&#x2001;" horiz-adv-x="1862" />
<glyph unicode="&#x2002;" horiz-adv-x="931" />
<glyph unicode="&#x2003;" horiz-adv-x="1862" />
<glyph unicode="&#x2004;" horiz-adv-x="620" />
<glyph unicode="&#x2005;" horiz-adv-x="465" />
<glyph unicode="&#x2006;" horiz-adv-x="310" />
<glyph unicode="&#x2007;" horiz-adv-x="310" />
<glyph unicode="&#x2008;" horiz-adv-x="232" />
<glyph unicode="&#x2009;" horiz-adv-x="372" />
<glyph unicode="&#x200a;" horiz-adv-x="103" />
<glyph unicode="&#x2010;" horiz-adv-x="831" d="M117 547l33 182h606l-33 -182h-606z" />
<glyph unicode="&#x2011;" horiz-adv-x="831" d="M117 547l33 182h606l-33 -182h-606z" />
<glyph unicode="&#x2012;" horiz-adv-x="831" d="M117 547l33 182h606l-33 -182h-606z" />
<glyph unicode="&#x2013;" horiz-adv-x="1024" d="M104 528l37 220h820l-37 -220h-820z" />
<glyph unicode="&#x2014;" horiz-adv-x="2048" d="M104 528l37 220h1844l-37 -220h-1844z" />
<glyph unicode="&#x2018;" horiz-adv-x="563" d="M184 1069q0 252 369 428l94 -127q-213 -96 -268 -223q66 -4 103.5 -43.5t37.5 -99.5q0 -64 -42 -107t-111 -43q-79 0 -131 57.5t-52 157.5z" />
<glyph unicode="&#x2019;" horiz-adv-x="563" d="M145 981q215 97 269 223q-66 4 -104 44t-38 100q0 64 42.5 106.5t111.5 42.5q79 0 130.5 -57.5t51.5 -157.5q0 -252 -368 -428z" />
<glyph unicode="&#x201a;" horiz-adv-x="563" d="M-68 -229q215 97 269 223q-66 4 -104 43.5t-38 99.5q0 64 42.5 107t111.5 43q79 0 130.5 -57.5t51.5 -157.5q0 -252 -368 -428z" />
<glyph unicode="&#x201c;" horiz-adv-x="995" d="M184 1069q0 252 369 428l94 -127q-213 -96 -268 -223q66 -4 103.5 -43.5t37.5 -99.5q0 -64 -42 -107t-111 -43q-79 0 -131 57.5t-52 157.5zM614 1069q0 252 369 428l94 -127q-213 -96 -268 -223q66 -4 103.5 -43.5t37.5 -99.5q0 -64 -42 -107t-111 -43q-79 0 -131 57.5 t-52 157.5z" />
<glyph unicode="&#x201d;" horiz-adv-x="995" d="M145 981q215 97 269 223q-66 4 -104 44t-38 100q0 64 42.5 106.5t111.5 42.5q79 0 130.5 -57.5t51.5 -157.5q0 -252 -368 -428zM578 981q213 96 268 223q-66 4 -103.5 44t-37.5 100q0 64 42 106.5t111 42.5q79 0 130.5 -57.5t51.5 -157.5q0 -252 -368 -428z" />
<glyph unicode="&#x201e;" horiz-adv-x="995" d="M-68 -229q215 97 269 223q-66 4 -104 43.5t-38 99.5q0 64 42.5 107t111.5 43q79 0 130.5 -57.5t51.5 -157.5q0 -252 -368 -428zM362 -229q215 97 269 223q-66 4 -104 43.5t-38 99.5q0 64 42.5 107t111.5 43q79 0 130.5 -57.5t51.5 -157.5q0 -252 -368 -428z" />
<glyph unicode="&#x2022;" horiz-adv-x="948" d="M242 719q0 114 74 189t188 75t188 -75t74 -189t-74 -189t-188 -75t-188 75t-74 189z" />
<glyph unicode="&#x2026;" horiz-adv-x="1581" d="M68 131q0 67 43.5 111.5t113.5 44.5t114 -44.5t44 -111.5t-44 -111.5t-114 -44.5t-113.5 44.5t-43.5 111.5zM559 131q0 67 44 111.5t114 44.5t113.5 -44.5t43.5 -111.5t-43.5 -111.5t-113.5 -44.5t-114 44.5t-44 111.5zM1051 131q0 67 43.5 111.5t113.5 44.5t114 -44.5 t44 -111.5t-44 -111.5t-114 -44.5t-113.5 44.5t-43.5 111.5z" />
<glyph unicode="&#x202f;" horiz-adv-x="372" />
<glyph unicode="&#x2039;" horiz-adv-x="675" d="M70 522l354 473h246l-359 -489l191 -457h-221z" />
<glyph unicode="&#x203a;" horiz-adv-x="675" d="M4 49l358 490l-190 456h221l211 -473l-354 -473h-246z" />
<glyph unicode="&#x205f;" horiz-adv-x="465" />
<glyph unicode="&#x20ac;" horiz-adv-x="1280" d="M33 498l30 168h191q3 69 12 133h-180l31 168h190q79 242 257 387t425 145q210 0 357 -110l-103 -205q-139 102 -274 102q-141 0 -244.5 -86t-161.5 -233h455l-31 -168h-471q-12 -85 -14 -133h463l-31 -168h-426q20 -161 93.5 -239.5t191.5 -78.5q152 0 303 113l28 -207 q-168 -111 -368 -111q-211 0 -343.5 134.5t-156.5 388.5h-223z" />
<glyph unicode="&#x2122;" horiz-adv-x="1599" d="M174 1335l25 140h559l-25 -140h-194l-99 -557h-170l99 557h-195zM682 778l190 697h211l45 -367q13 -109 15 -147h4q30 78 65 147l193 367h207l-62 -697h-166l39 330q10 90 27 182h-4q-29 -72 -70 -149l-190 -363h-148l-55 363q-13 82 -18 149h-4q-7 -42 -35 -162 l-86 -350h-158z" />
<glyph unicode="&#xe000;" horiz-adv-x="1044" d="M0 0v1044h1044v-1044h-1044z" />
<glyph unicode="&#xfb01;" horiz-adv-x="1218" d="M98 848l35 196h176l27 152q26 145 107.5 218t244.5 73q70 0 143 -12l-34 -193q-34 10 -72 10q-69 0 -99.5 -33.5t-43.5 -109.5l-19 -105h193l-35 -196h-193l-149 -848h-254l149 848h-176zM719 0l184 1044h254l-184 -1044h-254zM930 1335q0 63 40.5 102.5t108.5 39.5 t109 -40t41 -102t-41 -101.5t-109 -39.5t-108.5 39.5t-40.5 101.5z" />
<glyph unicode="&#xfb02;" horiz-adv-x="1220" d="M98 848l35 196h176l27 152q26 145 107.5 218t244.5 73q70 0 143 -12l-34 -193q-34 10 -72 10q-69 0 -99.5 -33.5t-43.5 -109.5l-19 -105h193l-35 -196h-193l-149 -848h-254l149 848h-176zM721 0l260 1475h254l-260 -1475h-254z" />
<glyph unicode="&#xfb03;" horiz-adv-x="1841" d="M98 848l35 196h176l27 152q26 145 107.5 218t246.5 73q73 0 150 -12l-35 -193q-39 10 -78 10q-70 0 -101 -33.5t-44 -109.5l-19 -105h367l26 152q26 145 107.5 218t245.5 73q69 0 143 -12l-35 -193q-34 10 -71 10q-69 0 -100 -33.5t-44 -109.5l-18 -105h192l-35 -196 h-192l-150 -848h-254l150 848h-367l-149 -848h-254l149 848h-176zM1341 0l185 1044h254l-185 -1044h-254zM1552 1335q0 62 41 102t109 40t108.5 -39.5t40.5 -102.5q0 -62 -40.5 -101.5t-108.5 -39.5t-109 39.5t-41 101.5z" />
<glyph unicode="&#xfb04;" horiz-adv-x="1841" d="M98 848l35 196h176l27 152q26 145 107.5 218t246.5 73q73 0 150 -12l-35 -193q-39 10 -78 10q-70 0 -101 -33.5t-44 -109.5l-19 -105h367l26 152q26 145 107.5 218t245.5 73q69 0 143 -12l-35 -193q-34 10 -71 10q-69 0 -100 -33.5t-44 -109.5l-18 -105h192l-35 -196 h-192l-150 -848h-254l150 848h-367l-149 -848h-254l149 848h-176zM1341 0l261 1475h253l-260 -1475h-254z" />
</font>
</defs>
</svg>
